/* XPM */
static const char * qam47[] = {
"32 32 240 2",
"  	c None",
". 	c #526400",
"+ 	c #B49400",
"@ 	c #E4E70B",
"# 	c #D3E91D",
"$ 	c #D5EC1A",
"% 	c #5A6200",
"& 	c #9E8A00",
"* 	c #DBE80A",
"= 	c #D7EE16",
"- 	c #626E00",
"; 	c #E0D800",
"> 	c #D6EC1C",
", 	c #827100",
"' 	c #DCE810",
") 	c #D7ED19",
"! 	c #8A7F00",
"~ 	c #D7ED17",
"{ 	c #D7EE12",
"] 	c #D9EA18",
"^ 	c #CFDD37",
"/ 	c #C3D547",
"( 	c #CDDA3C",
"_ 	c #D4EA1E",
": 	c #E4E206",
"< 	c #BBA249",
"[ 	c #B0D4A6",
"} 	c #C7FFED",
"| 	c #DBFFF8",
"1 	c #96F6A1",
"2 	c #BAD45E",
"3 	c #ACB853",
"4 	c #6B65B0",
"5 	c #4D3DDC",
"6 	c #4534E7",
"7 	c #4E3FDA",
"8 	c #939877",
"9 	c #E6E300",
"0 	c #968650",
"a 	c #B7FFDE",
"b 	c #FFFFFF",
"c 	c #FDFFFF",
"d 	c #D7FFF6",
"e 	c #B3DB6D",
"f 	c #85868B",
"g 	c #4432EA",
"h 	c #78759E",
"i 	c #B8C643",
"j 	c #4F40D9",
"k 	c #939778",
"l 	c #DAED0F",
"m 	c #C09E00",
"n 	c #AAD8B5",
"o 	c #DDFFF8",
"p 	c #B3D294",
"q 	c #BAA994",
"r 	c #DFFFF9",
"s 	c #CBFFF0",
"t 	c #C6DB39",
"u 	c #929679",
"v 	c #706BA9",
"w 	c #CFE521",
"x 	c #AFBB4F",
"y 	c #D8EE18",
"z 	c #DCD400",
"A 	c #8B7A59",
"B 	c #E9FFFC",
"C 	c #FBFFFF",
"D 	c #9FEA82",
"E 	c #DAF20A",
"F 	c #C4A600",
"G 	c #B6998E",
"H 	c #B3DA5E",
"I 	c #C7DA2D",
"J 	c #4737E4",
"K 	c #AEBB50",
"L 	c #B5C346",
"M 	c #CADE28",
"N 	c #C4B400",
"O 	c #B58681",
"P 	c #E5FFFB",
"Q 	c #BBD35B",
"R 	c #DFF113",
"S 	c #E2DF00",
"T 	c #887052",
"U 	c #E7FFFB",
"V 	c #AEDA7A",
"W 	c #979D71",
"X 	c #999F6F",
"Y 	c #5447D2",
"Z 	c #DCEE12",
"` 	c #BE9800",
" .	c #AACCAC",
"..	c #D1FFF3",
"+.	c #C7D644",
"@.	c #E2E90B",
"#.	c #8F7A27",
"$.	c #8DF58F",
"%.	c #82828F",
"&.	c #574ACE",
"*.	c #736FA5",
"=.	c #6C68AF",
"-.	c #D7EE14",
";.	c #DBED0D",
">.	c #B49000",
",.	c #ADF5CA",
"'.	c #C1FFE7",
").	c #CCDE36",
"!.	c #D9EB0D",
"~.	c #A3890F",
"{.	c #D3FFF4",
"].	c #8E917E",
"^.	c #5041D8",
"/.	c #CFE422",
"(.	c #B6C446",
"_.	c #4635E5",
":.	c #8D907F",
"<.	c #A1870F",
"[.	c #B9FFE0",
"}.	c #CEE032",
"|.	c #AC9306",
"1.	c #AEF8CD",
"2.	c #EFFFFD",
"3.	c #C8DC2B",
"4.	c #5A4ECA",
"5.	c #77749F",
"6.	c #4736E5",
"7.	c #B3C04A",
"8.	c #D9EC0A",
"9.	c #9E7F12",
"0.	c #B5FFDB",
"a.	c #D0E32D",
"b.	c #AEF0C7",
"c.	c #D3E91C",
"d.	c #BBCA3F",
"e.	c #C3D533",
"f.	c #BFFFE6",
"g.	c #ACF4C7",
"h.	c #D5FFF4",
"i.	c #D5EB1B",
"j.	c #B2FCD7",
"k.	c #BDFFE4",
"l.	c #B0F8D0",
"m.	c #B89800",
"n.	c #ABE3BC",
"o.	c #C9FFEE",
"p.	c #C5D93F",
"q.	c #DBEE0A",
"r.	c #C5FFEC",
"s.	c #7773A0",
"t.	c #635ABD",
"u.	c #736EA6",
"v.	c #9EA667",
"w.	c #584CCC",
"x.	c #C3D632",
"y.	c #A6B05D",
"z.	c #4D3EDB",
"A.	c #DBED15",
"B.	c #C0A300",
"C.	c #B5B8A6",
"D.	c #BED250",
"E.	c #E3EB07",
"F.	c #8F7629",
"G.	c #CFFFF2",
"H.	c #8EFE9B",
"I.	c #C9DC2B",
"J.	c #5042D8",
"K.	c #4B3BDF",
"L.	c #969B73",
"M.	c #A6B05C",
"N.	c #5B50C7",
"O.	c #8B8D83",
"P.	c #CAB500",
"Q.	c #A77471",
"R.	c #B7D769",
"S.	c #DDE000",
"T.	c #877257",
"U.	c #9EFEB9",
"V.	c #C8DB2B",
"W.	c #7B799A",
"X.	c #D0E620",
"Y.	c #EAE200",
"Z.	c #8A7842",
"`.	c #94F69D",
" +	c #B69F94",
".+	c #9BED85",
"++	c #ACB754",
"@+	c #BAC940",
"#+	c #989D71",
"$+	c #C6A800",
"%+	c #B6A89A",
"&+	c #EBFFFC",
"*+	c #A5E09A",
"=+	c #BAB9A0",
"-+	c #E3FFFB",
";+	c #BCD351",
">+	c #8F937D",
",+	c #9DA46A",
"'+	c #B5C344",
")+	c #878789",
"!+	c #AA942E",
"~+	c #A9E1B9",
"{+	c #D9FFF6",
"]+	c #B4DB6F",
"^+	c #7F8094",
"/+	c #4533E8",
"(+	c #D1E51F",
"_+	c #6A63B2",
":+	c #BDB533",
"<+	c #BCA58C",
"[+	c #BBFFE3",
"}+	c #564ACF",
"|+	c #6B64B1",
"1+	c #665EB8",
"2+	c #5B4FC8",
"3+	c #574BCD",
"4+	c #C8B300",
"5+	c #AA7273",
"6+	c #D8E91F",
"7+	c #CBE027",
"8+	c #878888",
"9+	c #D4EB1A",
"0+	c #4B3CDE",
"a+	c #4B3ADF",
"b+	c #E4EC00",
"c+	c #8E773A",
"d+	c #B3D86C",
"e+	c #D5EB19",
"f+	c #D4C800",
"g+	c #B18375",
"h+	c #F9FFFE",
"i+	c #F7FFFE",
"j+	c #A6E37D",
"k+	c #D7DE14",
"l+	c #CCC252",
"m+	c #B0DA7A",
"n+	c #AEE074",
"o+	c #C0D14F",
"p+	c #D9EB0F",
"q+	c #8C7D00",
"      . + @ # $ $                                               ",
"    % & * $ $ $ $ $ $ $ $ = $                                   ",
"  % - ; > = = $ = $ $ $ $ = = = = $ = = $                       ",
"  % , ' ) $ $ $ $ $ $ $ $ $ = = $ ) = = $ = $ $ $ $ $           ",
"  % ! = $ $ = $ $ ~ ~ ~ = = $ ) $ $ ) = $ = = = $ $ $           ",
"  % ! = $ $ ) { ] ^ / ( _ ~ = ) $ $ ) $ = ~ = = = $ =           ",
"  % ! $ $ $ : < [ } | } 1 2 = ) $ $ $ 3 4 5 6 7 8 = =           ",
"  % ! $ ) 9 0 a b b c b b d e ~ $ $ f g h i j g k $ =           ",
"  % ! ) l m n b b o p q r b s t $ u g v $ w 6 g x $ $           ",
"  % ! y z A B b C D E F G b c H I J g K $ L g g M $ =           ",
"  % ! $ N O b b P Q R S T U b V W g 6 w $ X g Y $ ~ =           ",
"  % ! Z `  .b b ..+.$ @.#.s b $.%.g &.$ $ *.g =.$ -.$           ",
"  % ! ;.>.,.b b '.).$ !.~.a b {.].g ^./.(._.g :.$ ~ $           ",
"  % ! !.<.[.b b [.}.$ ;.|.1.b 2.3.4.g J 5.6.g 5 7.$ $           ",
"  % ! 8.9.'.b b 0.a.$ l >.b.b r $ c.d.e.$ $ $ $ $ $ $           ",
"  % ! 8.<.f.b b a a.$ l >.g.b h.$ $ i.$ $ $ $ $ $ = =           ",
"  % ! ;.|.j.b b k.).$ ;.|.l.b s $ $ $ $ $ $ $ $ $ $ =           ",
"  % ! l m.n.b b o.p.= q.9.[.b r.$ s.t.t.u.v.w.J t.x.y.z.g g     ",
"  % ! A.B.C.b b o D.= E.F.G.b H.$ I.J.g K.L.M.g g N.O.f g g     ",
"  % ! y P.Q.c b 2.R.= S.T.B b U.$ V.g g W.$ X.g g 4 $   g g     ",
"  % ! ) Y.Z.{.b b `.A.F  +b c .+$ ++g g M.$ @+g g #+$   g g     ",
"  % ! = A.$+%+b b &+*+=+-+b s ;+$ >+g g x.$ ,+g g '+$ )+g g     ",
"  % ! = ) E.!+~+C b b b b {+]+~ $ u.g j $ $ ^+g /+(+$ _+g g     ",
"  % ! $ $ ) @.:+<+'.b b [+2 = = $ }+g |+$ $ 1+g 2+$ $ 3+g g     ",
"  % ! $ $ $ ) = 4+5+c b [.D.6+= 7+g g 8+$ 9+0+g 5.$ $ a+g g     ",
"  % ! $ $ = $ ) b+c+o.b C G.d+~ $ $ $ $ = $ = = $ $ $           ",
"  % ! $ $ $ $ = e+f+g+{+h+i+j+~ $ $ $ ) = $ = $ $ $ $           ",
"  % ! $ $ $ = = $ A.k+l+m+n+o+~ $ $ ) = = $ $ $ $ $             ",
"  % ! p+) $ = = $ $ $ $ ) ~ -.-.~ $ $ $ $ $ $                   ",
"  % ! p+) $ = = $ = = = = $ = $ $                               ",
"    q+p+) $ $ $ = = =                                           ",
"      p+)                                                       "};
